<mxfile host="Electron" modified="2021-03-30T14:54:18.613Z" agent="5.0 (Windows NT 10.0; Win64; x64) AppleWebKit/537.36 (KHTML, like Gecko) draw.io/14.1.8 Chrome/87.0.4280.88 Electron/11.1.1 Safari/537.36" etag="E3zj26viX0g_Y0g29sfe" compressed="false" version="14.1.8" type="device">
  <diagram id="HwmxiESPr0guiwSueC4q" name="Seite-1">
    <mxGraphModel dx="769" dy="484" grid="1" gridSize="10" guides="1" tooltips="1" connect="1" arrows="1" fold="1" page="1" pageScale="1" pageWidth="827" pageHeight="1169" background="#000000" math="0" shadow="0">
      <root>
        <mxCell id="0" />
        <mxCell id="1" parent="0" />
        <mxCell id="yu_OBh0eKFFPG81bEEBE-2" value="Phase&lt;sub&gt;1&lt;/sub&gt;" style="html=1;shadow=0;dashed=0;align=center;verticalAlign=middle;shape=mxgraph.arrows2.arrow;dy=0.6;dx=40;notch=0;fontStyle=1;fillColor=#dae8fc;strokeColor=#6c8ebf;" vertex="1" parent="1">
          <mxGeometry x="40" y="80" width="160" height="80" as="geometry" />
        </mxCell>
        <mxCell id="yu_OBh0eKFFPG81bEEBE-3" value="Phase&lt;sub&gt;3&lt;/sub&gt;" style="html=1;shadow=0;dashed=0;align=center;verticalAlign=middle;shape=mxgraph.arrows2.arrow;dy=0.6;dx=40;notch=0;fontStyle=1;fillColor=#dae8fc;strokeColor=#6c8ebf;" vertex="1" parent="1">
          <mxGeometry x="360" y="80" width="240" height="80" as="geometry" />
        </mxCell>
        <mxCell id="yu_OBh0eKFFPG81bEEBE-4" value="Phase&lt;sub&gt;2&lt;/sub&gt;" style="html=1;shadow=0;dashed=0;align=center;verticalAlign=middle;shape=mxgraph.arrows2.arrow;dy=0.6;dx=40;notch=0;fontStyle=1;fillColor=#dae8fc;strokeColor=#6c8ebf;" vertex="1" parent="1">
          <mxGeometry x="200" y="80" width="160" height="80" as="geometry" />
        </mxCell>
        <mxCell id="yu_OBh0eKFFPG81bEEBE-5" value="E" style="triangle;whiteSpace=wrap;html=1;rotation=90;horizontal=0;fillColor=#f8cecc;strokeColor=#b85450;" vertex="1" parent="1">
          <mxGeometry x="140" y="140" width="40" height="80" as="geometry" />
        </mxCell>
        <mxCell id="yu_OBh0eKFFPG81bEEBE-6" value="C" style="triangle;whiteSpace=wrap;html=1;rotation=90;horizontal=0;fillColor=#f8cecc;strokeColor=#b85450;" vertex="1" parent="1">
          <mxGeometry x="300" y="140" width="40" height="80" as="geometry" />
        </mxCell>
        <mxCell id="yu_OBh0eKFFPG81bEEBE-7" value="D" style="triangle;whiteSpace=wrap;html=1;rotation=90;horizontal=0;fillColor=#f8cecc;strokeColor=#b85450;" vertex="1" parent="1">
          <mxGeometry x="220" y="140" width="40" height="80" as="geometry" />
        </mxCell>
        <mxCell id="yu_OBh0eKFFPG81bEEBE-8" value="B" style="triangle;whiteSpace=wrap;html=1;rotation=90;horizontal=0;fillColor=#f8cecc;strokeColor=#b85450;" vertex="1" parent="1">
          <mxGeometry x="460" y="140" width="40" height="80" as="geometry" />
        </mxCell>
        <mxCell id="yu_OBh0eKFFPG81bEEBE-9" value="A" style="triangle;whiteSpace=wrap;html=1;rotation=90;horizontal=0;fillColor=#f8cecc;strokeColor=#b85450;" vertex="1" parent="1">
          <mxGeometry x="540" y="140" width="40" height="80" as="geometry" />
        </mxCell>
        <mxCell id="yu_OBh0eKFFPG81bEEBE-10" value="Ergebnis&lt;sub&gt;1&lt;/sub&gt;" style="shape=document;whiteSpace=wrap;html=1;boundedLbl=1;fillColor=#fff2cc;strokeColor=#d6b656;" vertex="1" parent="1">
          <mxGeometry x="600" y="200" width="80" height="40" as="geometry" />
        </mxCell>
        <mxCell id="yu_OBh0eKFFPG81bEEBE-11" value="Ergebnis&lt;sub&gt;2&lt;/sub&gt;" style="shape=document;whiteSpace=wrap;html=1;boundedLbl=1;fillColor=#fff2cc;strokeColor=#d6b656;" vertex="1" parent="1">
          <mxGeometry x="600" y="240" width="80" height="40" as="geometry" />
        </mxCell>
        <mxCell id="yu_OBh0eKFFPG81bEEBE-12" value="Ergebnis&lt;sub&gt;3&lt;/sub&gt;" style="shape=document;whiteSpace=wrap;html=1;boundedLbl=1;fillColor=#fff2cc;strokeColor=#d6b656;" vertex="1" parent="1">
          <mxGeometry x="600" y="280" width="80" height="40" as="geometry" />
        </mxCell>
        <mxCell id="yu_OBh0eKFFPG81bEEBE-13" value="Ergebnis&lt;sub&gt;4&lt;/sub&gt;" style="shape=document;whiteSpace=wrap;html=1;boundedLbl=1;fillColor=#fff2cc;strokeColor=#d6b656;" vertex="1" parent="1">
          <mxGeometry x="600" y="320" width="80" height="40" as="geometry" />
        </mxCell>
        <mxCell id="yu_OBh0eKFFPG81bEEBE-14" value="Ergebnis&lt;sub&gt;5&lt;/sub&gt;" style="shape=document;whiteSpace=wrap;html=1;boundedLbl=1;fillColor=#fff2cc;strokeColor=#d6b656;" vertex="1" parent="1">
          <mxGeometry x="600" y="360" width="80" height="40" as="geometry" />
        </mxCell>
        <mxCell id="yu_OBh0eKFFPG81bEEBE-15" value="Phasen-&lt;br&gt;ergebnis" style="text;html=1;strokeColor=none;fillColor=none;align=center;verticalAlign=middle;whiteSpace=wrap;rounded=0;fontStyle=2;fontColor=#FFFFFF;" vertex="1" parent="1">
          <mxGeometry x="600" y="160" width="80" height="40" as="geometry" />
        </mxCell>
        <mxCell id="yu_OBh0eKFFPG81bEEBE-16" value="" style="endArrow=classic;html=1;exitX=1;exitY=0.5;exitDx=0;exitDy=0;" edge="1" parent="1" source="yu_OBh0eKFFPG81bEEBE-5" target="yu_OBh0eKFFPG81bEEBE-10">
          <mxGeometry width="50" height="50" relative="1" as="geometry">
            <mxPoint x="180" y="270" as="sourcePoint" />
            <mxPoint x="230" y="220" as="targetPoint" />
            <Array as="points">
              <mxPoint x="160" y="218" />
            </Array>
          </mxGeometry>
        </mxCell>
        <mxCell id="yu_OBh0eKFFPG81bEEBE-17" value="" style="endArrow=classic;html=1;exitX=1;exitY=0.5;exitDx=0;exitDy=0;entryX=0;entryY=0.5;entryDx=0;entryDy=0;" edge="1" parent="1" source="yu_OBh0eKFFPG81bEEBE-7" target="yu_OBh0eKFFPG81bEEBE-11">
          <mxGeometry width="50" height="50" relative="1" as="geometry">
            <mxPoint x="320" y="390" as="sourcePoint" />
            <mxPoint x="370" y="340" as="targetPoint" />
            <Array as="points">
              <mxPoint x="240" y="260" />
            </Array>
          </mxGeometry>
        </mxCell>
        <mxCell id="yu_OBh0eKFFPG81bEEBE-18" value="" style="endArrow=classic;html=1;exitX=1;exitY=0.5;exitDx=0;exitDy=0;entryX=0;entryY=0.5;entryDx=0;entryDy=0;" edge="1" parent="1" source="yu_OBh0eKFFPG81bEEBE-6" target="yu_OBh0eKFFPG81bEEBE-12">
          <mxGeometry width="50" height="50" relative="1" as="geometry">
            <mxPoint x="400" y="350" as="sourcePoint" />
            <mxPoint x="450" y="300" as="targetPoint" />
            <Array as="points">
              <mxPoint x="320" y="300" />
            </Array>
          </mxGeometry>
        </mxCell>
        <mxCell id="yu_OBh0eKFFPG81bEEBE-19" value="" style="endArrow=classic;html=1;exitX=1;exitY=0.5;exitDx=0;exitDy=0;entryX=0;entryY=0.5;entryDx=0;entryDy=0;" edge="1" parent="1" source="yu_OBh0eKFFPG81bEEBE-8" target="yu_OBh0eKFFPG81bEEBE-13">
          <mxGeometry width="50" height="50" relative="1" as="geometry">
            <mxPoint x="490" y="380" as="sourcePoint" />
            <mxPoint x="540" y="330" as="targetPoint" />
            <Array as="points">
              <mxPoint x="480" y="340" />
            </Array>
          </mxGeometry>
        </mxCell>
        <mxCell id="yu_OBh0eKFFPG81bEEBE-20" value="" style="endArrow=classic;html=1;exitX=1;exitY=0.5;exitDx=0;exitDy=0;entryX=0;entryY=0.5;entryDx=0;entryDy=0;fillColor=#f8cecc;strokeColor=#b85450;" edge="1" parent="1" source="yu_OBh0eKFFPG81bEEBE-9" target="yu_OBh0eKFFPG81bEEBE-14">
          <mxGeometry width="50" height="50" relative="1" as="geometry">
            <mxPoint x="470" y="430" as="sourcePoint" />
            <mxPoint x="520" y="380" as="targetPoint" />
            <Array as="points">
              <mxPoint x="560" y="380" />
            </Array>
          </mxGeometry>
        </mxCell>
        <mxCell id="yu_OBh0eKFFPG81bEEBE-21" value="" style="endArrow=classic;html=1;exitX=1;exitY=0.5;exitDx=0;exitDy=0;fillColor=#f8cecc;strokeColor=#b85450;" edge="1" parent="1">
          <mxGeometry width="50" height="50" relative="1" as="geometry">
            <mxPoint x="160" y="200" as="sourcePoint" />
            <mxPoint x="600" y="219.83333333333337" as="targetPoint" />
            <Array as="points">
              <mxPoint x="160" y="218" />
            </Array>
          </mxGeometry>
        </mxCell>
        <mxCell id="yu_OBh0eKFFPG81bEEBE-22" value="" style="endArrow=classic;html=1;exitX=1;exitY=0.5;exitDx=0;exitDy=0;entryX=0;entryY=0.5;entryDx=0;entryDy=0;fillColor=#f8cecc;strokeColor=#b85450;" edge="1" parent="1">
          <mxGeometry width="50" height="50" relative="1" as="geometry">
            <mxPoint x="240" y="200" as="sourcePoint" />
            <mxPoint x="600" y="260" as="targetPoint" />
            <Array as="points">
              <mxPoint x="240" y="260" />
            </Array>
          </mxGeometry>
        </mxCell>
        <mxCell id="yu_OBh0eKFFPG81bEEBE-23" value="" style="endArrow=classic;html=1;exitX=1;exitY=0.5;exitDx=0;exitDy=0;entryX=0;entryY=0.5;entryDx=0;entryDy=0;fillColor=#f8cecc;strokeColor=#b85450;" edge="1" parent="1">
          <mxGeometry width="50" height="50" relative="1" as="geometry">
            <mxPoint x="320" y="200" as="sourcePoint" />
            <mxPoint x="600" y="300" as="targetPoint" />
            <Array as="points">
              <mxPoint x="320" y="300" />
            </Array>
          </mxGeometry>
        </mxCell>
        <mxCell id="yu_OBh0eKFFPG81bEEBE-24" value="" style="endArrow=classic;html=1;exitX=1;exitY=0.5;exitDx=0;exitDy=0;entryX=0;entryY=0.5;entryDx=0;entryDy=0;fillColor=#f8cecc;strokeColor=#b85450;" edge="1" parent="1">
          <mxGeometry width="50" height="50" relative="1" as="geometry">
            <mxPoint x="480" y="200" as="sourcePoint" />
            <mxPoint x="600" y="340" as="targetPoint" />
            <Array as="points">
              <mxPoint x="480" y="340" />
            </Array>
          </mxGeometry>
        </mxCell>
      </root>
    </mxGraphModel>
  </diagram>
</mxfile>
